<svg width="34" height="36" viewBox="0 0 34 36" fill="none" xmlns="http://www.w3.org/2000/svg">
<path d="M15.5231 35.9036C18.1986 35.9036 20.4366 33.9964 20.9505 31.4719H10.0958C10.61 33.9964 12.848 35.9036 15.5231 35.9036Z" fill="white"/>
<path d="M25.8816 18.1755C25.8756 18.1755 25.8697 18.1768 25.8637 18.1768C20.1632 18.1768 15.5232 13.5382 15.5232 7.83625C15.5232 6.26876 15.8837 4.78701 16.5115 3.45458C16.1864 3.42375 15.857 3.40454 15.5232 3.40454C9.81233 3.40454 5.18262 8.03398 5.18262 13.7451V17.8636C5.18262 20.787 3.90186 23.5466 1.6549 25.4462C0.90591 26.0859 0.573479 27.1051 0.842345 28.0995C1.15557 29.2561 2.29893 29.9948 3.49856 29.9948H27.5405C28.7991 29.9948 29.9855 29.1792 30.2408 27.9458C30.4388 26.9915 30.0991 26.0386 29.359 25.4167C27.211 23.6161 25.9687 20.9702 25.8816 18.1755Z" fill="white"/>
<path d="M33.25 7.83622C33.25 11.9155 29.9432 15.2222 25.8637 15.2222C21.7845 15.2222 18.4777 11.9155 18.4777 7.83622C18.4777 3.75696 21.7845 0.449951 25.8637 0.449951C29.9432 0.449951 33.25 3.75696 33.25 7.83622Z" fill="#E30A2E"/>
</svg>
