<svg width="131" height="35" viewBox="0 0 131 35" fill="none" xmlns="http://www.w3.org/2000/svg">
<path d="M20.364 31.172L16.536 35H1.356V12.164L5.184 8.424H0.828V4.596H13.28L17.108 8.424V13.836L14.424 16.52H17.108L20.364 19.776V31.172ZM12.752 16.52V8.424H5.712V19.776L8.924 16.52H12.752ZM16.008 31.172V19.776H5.712V31.172H16.008ZM40.9838 35H36.6278V27.652L33.1078 24.176L29.5878 27.652V35H25.2318V27.168L30.7318 21.756L25.2318 16.344V10.888L33.1078 18.852L40.9838 10.888V16.344L35.4838 21.756L40.9838 27.124V35ZM65.7266 35H47.2466V4.596H51.6026V31.172H61.3706V27.388L65.7266 23.076V35ZM86.1351 35H74.2111L70.4271 31.172V15.992L74.2111 12.164H82.3511L86.1351 15.992V23.604L82.3511 27.388H75.3111L79.1831 23.604H81.8231V15.992H74.7831V31.172H86.1351V35ZM108.016 35H103.704V15.992H96.6645V35H92.3085V12.164H96.6645V15.464L99.8765 12.164H104.232L108.016 15.992V35ZM130.651 35H126.339V31.744L123.171 35H118.727L114.943 31.172V15.992L118.727 12.164H126.339V4.552L130.651 0.239999V35ZM126.339 31.172V12.692L122.995 15.992H119.299V31.172H126.339Z" fill="url(#paint0_linear_1_73)"/>
<defs>
<linearGradient id="paint0_linear_1_73" x1="55.9286" y1="-9.37209" x2="56.1695" y2="34.9991" gradientUnits="userSpaceOnUse">
<stop stop-color="#FFD600"/>
<stop offset="1" stop-color="#F6E9BB"/>
</linearGradient>
</defs>
</svg>
